<svg xmlns="http://www.w3.org/2000/svg" width="615" height="110" viewBox="0 0 615 110" version="1.1"><path d="M 57 53.589 L 57 93.178 77.250 92.788 C 95.645 92.434, 98.049 92.182, 103.493 90.036 C 107.639 88.402, 111.209 85.951, 115.080 82.080 C 118.912 78.248, 121.429 74.597, 123.070 70.493 C 125.108 65.393, 125.466 62.786, 125.473 53 C 125.480 42.494, 125.237 40.972, 122.663 35.383 C 121.114 32.018, 117.968 27.435, 115.673 25.199 C 113.378 22.962, 109.250 20.016, 106.500 18.652 C 103.750 17.288, 98.830 15.683, 95.566 15.086 C 92.303 14.489, 82.290 14, 73.316 14 L 57 14 57 53.589 M 138 53.500 L 138 93 148.500 93 L 159 93 159 79.500 L 159 66 164.750 66.016 L 170.500 66.033 176 79.500 L 181.500 92.967 192.672 92.984 L 203.843 93 196.968 78.001 L 190.093 63.002 194.824 58.251 C 197.712 55.351, 200.032 51.896, 200.778 49.384 C 201.450 47.120, 202 42.672, 202 39.500 C 202 36.328, 201.447 31.880, 200.770 29.616 C 200.063 27.249, 197.765 23.722, 195.363 21.316 C 192.520 18.469, 189.500 16.632, 185.911 15.566 C 181.844 14.358, 175.757 14, 159.318 14 L 138 14 138 53.500 M 216 53.500 L 216 93 227 93 L 238 93 238 53.500 L 238 14 227 14 L 216 14 216 53.500 M 259.545 53.250 L 272.726 92.500 284.701 92.779 L 296.675 93.059 309.500 54.779 C 316.554 33.726, 322.532 15.921, 322.784 15.214 C 323.142 14.207, 321.002 13.990, 312.952 14.214 L 302.663 14.500 294.081 40.180 C 289.362 54.305, 285.270 66.084, 284.990 66.357 C 284.709 66.630, 280.483 54.961, 275.598 40.427 L 266.716 14 256.539 14 L 246.363 14 259.545 53.250 M 332 53.500 L 332 93 361.500 93 L 391 93 391 84 L 391 75 372.500 75 L 354 75 354 68.526 L 354 62.052 369.250 61.776 L 384.500 61.500 384.790 53.250 L 385.081 45 369.540 45 L 354 45 354 38.523 L 354 32.045 372.250 31.773 L 390.500 31.500 390.789 22.750 L 391.078 14 361.539 14 L 332 14 332 53.500 M 403 53.435 L 403 93 414 93 L 425 93 425 79.500 L 425 66 430.310 66 L 435.619 66 440.915 78.750 C 443.827 85.763, 446.539 91.853, 446.940 92.286 C 447.342 92.718, 452.423 92.943, 458.232 92.786 L 468.793 92.500 462.013 77.524 L 455.233 62.547 459.541 58.755 C 462.167 56.444, 464.558 53.116, 465.666 50.232 C 466.718 47.491, 467.468 42.975, 467.449 39.500 C 467.430 36.200, 466.824 31.774, 466.101 29.664 C 465.379 27.555, 463.416 24.266, 461.739 22.355 C 460.062 20.445, 456.847 17.896, 454.595 16.691 C 450.768 14.643, 448.947 14.479, 426.750 14.185 L 403 13.869 403 53.435 M 481 53.500 L 481 93 492 93 L 503 93 503 53.500 L 503 14 492 14 L 481 14 481 53.500 M 539 14.371 C 539 14.575, 532.760 32.350, 525.134 53.871 L 511.269 93 522.051 93 L 532.833 93 535.248 85.750 L 537.664 78.500 550.187 78.221 L 562.711 77.942 565.457 85.471 L 568.203 93 578.708 93 C 586.681 93, 589.108 92.699, 588.774 91.750 C 588.532 91.063, 582.297 73.296, 574.917 52.268 L 561.500 14.037 550.250 14.018 C 544.063 14.008, 539 14.167, 539 14.371 M 159 40 L 159 50 165.750 49.985 C 169.463 49.977, 173.625 49.404, 175 48.711 C 176.375 48.019, 178.358 45.861, 179.406 43.916 C 180.715 41.488, 181.094 39.510, 180.616 37.605 C 180.233 36.078, 178.747 33.743, 177.314 32.415 C 175.019 30.288, 173.772 30, 166.854 30 L 159 30 159 40 M 425 40 L 425 50 432.100 50 L 439.200 50 442.728 46.472 C 445.940 43.260, 446.205 42.566, 445.690 38.724 C 445.308 35.876, 444.272 33.771, 442.506 32.252 C 440.298 30.352, 438.724 30, 432.444 30 L 425 30 425 40 M 78 53.504 L 78 76.226 84.860 75.838 C 90.523 75.518, 92.377 74.950, 95.479 72.584 C 97.552 71.003, 100.172 67.650, 101.319 65.108 C 102.834 61.756, 103.401 58.456, 103.401 53 C 103.401 47.552, 102.834 44.243, 101.327 40.908 C 100.186 38.382, 97.735 35.235, 95.880 33.915 C 93.245 32.039, 90.924 31.434, 85.254 31.148 L 78 30.781 78 53.504 M 547.146 45.012 C 545.345 50.780, 543.646 56.288, 543.369 57.250 C 542.921 58.806, 543.697 59, 550.352 59 L 557.838 59 555.294 50.750 C 553.894 46.212, 552.225 40.705, 551.584 38.512 L 550.419 34.523 547.146 45.012" stroke="none" fill="#9c7b1d" fill-rule="evenodd"/><path d="M -0 55.002 L -0 110.003 307.750 109.752 L 615.500 109.500 615.759 54.750 L 616.017 0 308.009 0 L 0 0 -0 55.002 M 0.467 55.500 C 0.467 85.750, 0.594 98.269, 0.749 83.321 C 0.905 68.372, 0.905 43.622, 0.749 28.321 C 0.594 13.019, 0.467 25.250, 0.467 55.500 M 57 53.589 L 57 93.178 77.250 92.788 C 95.645 92.434, 98.049 92.182, 103.493 90.036 C 107.639 88.402, 111.209 85.951, 115.080 82.080 C 118.912 78.248, 121.429 74.597, 123.070 70.493 C 125.108 65.393, 125.466 62.786, 125.473 53 C 125.480 42.494, 125.237 40.972, 122.663 35.383 C 121.114 32.018, 117.968 27.435, 115.673 25.199 C 113.378 22.962, 109.250 20.016, 106.500 18.652 C 103.750 17.288, 98.830 15.683, 95.566 15.086 C 92.303 14.489, 82.290 14, 73.316 14 L 57 14 57 53.589 M 138 53.500 L 138 93 148.500 93 L 159 93 159 79.500 L 159 66 164.750 66.016 L 170.500 66.033 176 79.500 L 181.500 92.967 192.672 92.984 L 203.843 93 196.968 78.001 L 190.093 63.002 194.824 58.251 C 197.712 55.351, 200.032 51.896, 200.778 49.384 C 201.450 47.120, 202 42.672, 202 39.500 C 202 36.328, 201.447 31.880, 200.770 29.616 C 200.063 27.249, 197.765 23.722, 195.363 21.316 C 192.520 18.469, 189.500 16.632, 185.911 15.566 C 181.844 14.358, 175.757 14, 159.318 14 L 138 14 138 53.500 M 216 53.500 L 216 93 227 93 L 238 93 238 53.500 L 238 14 227 14 L 216 14 216 53.500 M 259.545 53.250 L 272.726 92.500 284.701 92.779 L 296.675 93.059 309.500 54.779 C 316.554 33.726, 322.532 15.921, 322.784 15.214 C 323.142 14.207, 321.002 13.990, 312.952 14.214 L 302.663 14.500 294.081 40.180 C 289.362 54.305, 285.270 66.084, 284.990 66.357 C 284.709 66.630, 280.483 54.961, 275.598 40.427 L 266.716 14 256.539 14 L 246.363 14 259.545 53.250 M 332 53.500 L 332 93 361.500 93 L 391 93 391 84 L 391 75 372.500 75 L 354 75 354 68.526 L 354 62.052 369.250 61.776 L 384.500 61.500 384.790 53.250 L 385.081 45 369.540 45 L 354 45 354 38.523 L 354 32.045 372.250 31.773 L 390.500 31.500 390.789 22.750 L 391.078 14 361.539 14 L 332 14 332 53.500 M 403 53.435 L 403 93 414 93 L 425 93 425 79.500 L 425 66 430.310 66 L 435.619 66 440.915 78.750 C 443.827 85.763, 446.539 91.853, 446.940 92.286 C 447.342 92.718, 452.423 92.943, 458.232 92.786 L 468.793 92.500 462.013 77.524 L 455.233 62.547 459.541 58.755 C 462.167 56.444, 464.558 53.116, 465.666 50.232 C 466.718 47.491, 467.468 42.975, 467.449 39.500 C 467.430 36.200, 466.824 31.774, 466.101 29.664 C 465.379 27.555, 463.416 24.266, 461.739 22.355 C 460.062 20.445, 456.847 17.896, 454.595 16.691 C 450.768 14.643, 448.947 14.479, 426.750 14.185 L 403 13.869 403 53.435 M 481 53.500 L 481 93 492 93 L 503 93 503 53.500 L 503 14 492 14 L 481 14 481 53.500 M 539 14.371 C 539 14.575, 532.760 32.350, 525.134 53.871 L 511.269 93 522.051 93 L 532.833 93 535.248 85.750 L 537.664 78.500 550.187 78.221 L 562.711 77.942 565.457 85.471 L 568.203 93 578.708 93 C 586.681 93, 589.108 92.699, 588.774 91.750 C 588.532 91.063, 582.297 73.296, 574.917 52.268 L 561.500 14.037 550.250 14.018 C 544.063 14.008, 539 14.167, 539 14.371 M 159 40 L 159 50 165.750 49.985 C 169.463 49.977, 173.625 49.404, 175 48.711 C 176.375 48.019, 178.358 45.861, 179.406 43.916 C 180.715 41.488, 181.094 39.510, 180.616 37.605 C 180.233 36.078, 178.747 33.743, 177.314 32.415 C 175.019 30.288, 173.772 30, 166.854 30 L 159 30 159 40 M 425 40 L 425 50 432.100 50 L 439.200 50 442.728 46.472 C 445.940 43.260, 446.205 42.566, 445.690 38.724 C 445.308 35.876, 444.272 33.771, 442.506 32.252 C 440.298 30.352, 438.724 30, 432.444 30 L 425 30 425 40 M 78 53.504 L 78 76.226 84.860 75.838 C 90.523 75.518, 92.377 74.950, 95.479 72.584 C 97.552 71.003, 100.172 67.650, 101.319 65.108 C 102.834 61.756, 103.401 58.456, 103.401 53 C 103.401 47.552, 102.834 44.243, 101.327 40.908 C 100.186 38.382, 97.735 35.235, 95.880 33.915 C 93.245 32.039, 90.924 31.434, 85.254 31.148 L 78 30.781 78 53.504 M 547.146 45.012 C 545.345 50.780, 543.646 56.288, 543.369 57.250 C 542.921 58.806, 543.697 59, 550.352 59 L 557.838 59 555.294 50.750 C 553.894 46.212, 552.225 40.705, 551.584 38.512 L 550.419 34.523 547.146 45.012" stroke="none" fill="#fbfbf3" fill-rule="evenodd"/></svg>